<mxfile host="app.diagrams.net" modified="2023-11-30T13:08:41.793Z" agent="Mozilla/5.0 (Windows NT 10.0; Win64; x64) AppleWebKit/537.36 (KHTML, like Gecko) Chrome/119.0.0.0 Safari/537.36" etag="0JMNCpIw1CWxqinmdK6I" version="22.1.5" type="device" pages="2">
  <diagram name="Страница — 1" id="jMHzL4gEllbNG8lB82qE">
    <mxGraphModel dx="993" dy="2251" grid="1" gridSize="15" guides="1" tooltips="1" connect="1" arrows="1" fold="1" page="0" pageScale="1" pageWidth="1169" pageHeight="827" background="#63A8C2" math="0" shadow="0">
      <root>
        <mxCell id="0" />
        <mxCell id="1" parent="0" />
        <mxCell id="RCvce2JsTzCcPLTj6pLt-6" value="" style="shape=or;whiteSpace=wrap;html=1;sketch=1;curveFitting=1;jiggle=2;shadow=1;" vertex="1" parent="1">
          <mxGeometry x="655" y="-1244.06" width="150" height="195" as="geometry" />
        </mxCell>
        <mxCell id="RCvce2JsTzCcPLTj6pLt-9" value="" style="line;strokeWidth=4;html=1;perimeter=backbonePerimeter;points=[];outlineConnect=0;" vertex="1" parent="1">
          <mxGeometry x="780" y="-1151.56" width="30" height="10" as="geometry" />
        </mxCell>
        <mxCell id="RCvce2JsTzCcPLTj6pLt-10" value="" style="shape=or;whiteSpace=wrap;html=1;rotation=-90;shadow=1;sketch=1;curveFitting=1;jiggle=2;" vertex="1" parent="1">
          <mxGeometry x="89.06" y="-1395" width="131.87" height="208.75" as="geometry" />
        </mxCell>
        <mxCell id="RCvce2JsTzCcPLTj6pLt-11" value="" style="shape=or;whiteSpace=wrap;html=1;rotation=90;sketch=1;curveFitting=1;jiggle=2;shadow=1;" vertex="1" parent="1">
          <mxGeometry x="88.12" y="-1094.06" width="133.75" height="208.75" as="geometry" />
        </mxCell>
        <mxCell id="RCvce2JsTzCcPLTj6pLt-7" value="" style="swimlane;startSize=0;swimlaneFillColor=#ffffff;" vertex="1" parent="1">
          <mxGeometry x="45" y="-1244.06" width="615" height="195" as="geometry" />
        </mxCell>
        <mxCell id="RCvce2JsTzCcPLTj6pLt-13" value="Player" style="swimlane;fontStyle=1;align=center;verticalAlign=top;childLayout=stackLayout;horizontal=1;startSize=26;horizontalStack=0;resizeParent=1;resizeParentMax=0;resizeLast=0;collapsible=1;marginBottom=0;whiteSpace=wrap;html=1;strokeWidth=2;" vertex="1" parent="1">
          <mxGeometry x="255" y="990" width="160" height="105" as="geometry" />
        </mxCell>
        <mxCell id="RCvce2JsTzCcPLTj6pLt-32" value="-Bank:int" style="text;html=1;align=left;verticalAlign=middle;resizable=0;points=[];autosize=1;strokeColor=none;fillColor=none;" vertex="1" parent="RCvce2JsTzCcPLTj6pLt-13">
          <mxGeometry y="26" width="160" height="30" as="geometry" />
        </mxCell>
        <mxCell id="RCvce2JsTzCcPLTj6pLt-15" value="" style="line;strokeWidth=1;fillColor=none;align=left;verticalAlign=middle;spacingTop=-1;spacingLeft=3;spacingRight=3;rotatable=0;labelPosition=right;points=[];portConstraint=eastwest;strokeColor=inherit;" vertex="1" parent="RCvce2JsTzCcPLTj6pLt-13">
          <mxGeometry y="56" width="160" height="19" as="geometry" />
        </mxCell>
        <mxCell id="RCvce2JsTzCcPLTj6pLt-16" value="+Bind:int&lt;br&gt;+Rais:int" style="text;strokeColor=none;fillColor=none;align=left;verticalAlign=bottom;spacingLeft=4;spacingRight=4;overflow=hidden;rotatable=0;points=[[0,0.5],[1,0.5]];portConstraint=eastwest;whiteSpace=wrap;html=1;horizontal=1;" vertex="1" parent="RCvce2JsTzCcPLTj6pLt-13">
          <mxGeometry y="75" width="160" height="30" as="geometry" />
        </mxCell>
        <mxCell id="RCvce2JsTzCcPLTj6pLt-17" value="Croupier" style="swimlane;fontStyle=1;align=center;verticalAlign=top;childLayout=stackLayout;horizontal=1;startSize=26;horizontalStack=0;resizeParent=1;resizeParentMax=0;resizeLast=0;collapsible=1;marginBottom=0;whiteSpace=wrap;html=1;strokeWidth=2;" vertex="1" parent="1">
          <mxGeometry x="525" y="990" width="160" height="105" as="geometry" />
        </mxCell>
        <mxCell id="RCvce2JsTzCcPLTj6pLt-19" value="" style="line;strokeWidth=1;fillColor=none;align=left;verticalAlign=middle;spacingTop=-1;spacingLeft=3;spacingRight=3;rotatable=0;labelPosition=right;points=[];portConstraint=eastwest;strokeColor=inherit;" vertex="1" parent="RCvce2JsTzCcPLTj6pLt-17">
          <mxGeometry y="26" width="160" height="8" as="geometry" />
        </mxCell>
        <mxCell id="RCvce2JsTzCcPLTj6pLt-20" value="+ DealCards:void&lt;br&gt;+GiveAwayBank:int" style="text;strokeColor=none;fillColor=none;align=left;verticalAlign=top;spacingLeft=4;spacingRight=4;overflow=hidden;rotatable=0;points=[[0,0.5],[1,0.5]];portConstraint=eastwest;whiteSpace=wrap;html=1;" vertex="1" parent="RCvce2JsTzCcPLTj6pLt-17">
          <mxGeometry y="34" width="160" height="71" as="geometry" />
        </mxCell>
        <mxCell id="RCvce2JsTzCcPLTj6pLt-28" value="DefaultActions" style="swimlane;fontStyle=1;align=center;verticalAlign=top;childLayout=stackLayout;horizontal=1;startSize=26;horizontalStack=0;resizeParent=1;resizeParentMax=0;resizeLast=0;collapsible=1;marginBottom=0;whiteSpace=wrap;html=1;strokeWidth=2;" vertex="1" parent="1">
          <mxGeometry x="390" y="750" width="160" height="120" as="geometry" />
        </mxCell>
        <mxCell id="RCvce2JsTzCcPLTj6pLt-30" value="" style="line;strokeWidth=1;fillColor=none;align=left;verticalAlign=middle;spacingTop=-1;spacingLeft=3;spacingRight=3;rotatable=0;labelPosition=right;points=[];portConstraint=eastwest;strokeColor=inherit;" vertex="1" parent="RCvce2JsTzCcPLTj6pLt-28">
          <mxGeometry y="26" width="160" height="8" as="geometry" />
        </mxCell>
        <mxCell id="RCvce2JsTzCcPLTj6pLt-31" value="+AddCard:card&lt;br&gt;+Split:void&lt;br&gt;+TakeBank:int&lt;br&gt;+Stop:void" style="text;strokeColor=none;fillColor=none;align=left;verticalAlign=top;spacingLeft=4;spacingRight=4;overflow=hidden;rotatable=0;points=[[0,0.5],[1,0.5]];portConstraint=eastwest;whiteSpace=wrap;html=1;" vertex="1" parent="RCvce2JsTzCcPLTj6pLt-28">
          <mxGeometry y="34" width="160" height="86" as="geometry" />
        </mxCell>
        <mxCell id="RCvce2JsTzCcPLTj6pLt-37" value="Deck" style="swimlane;fontStyle=1;align=center;verticalAlign=top;childLayout=stackLayout;horizontal=1;startSize=26;horizontalStack=0;resizeParent=1;resizeParentMax=0;resizeLast=0;collapsible=1;marginBottom=0;whiteSpace=wrap;html=1;strokeWidth=2;" vertex="1" parent="1">
          <mxGeometry x="975" y="767" width="150" height="96" as="geometry" />
        </mxCell>
        <mxCell id="RCvce2JsTzCcPLTj6pLt-38" value="-Cards[36]:Card" style="text;strokeColor=none;fillColor=none;align=left;verticalAlign=top;spacingLeft=4;spacingRight=4;overflow=hidden;rotatable=0;points=[[0,0.5],[1,0.5]];portConstraint=eastwest;whiteSpace=wrap;html=1;" vertex="1" parent="RCvce2JsTzCcPLTj6pLt-37">
          <mxGeometry y="26" width="150" height="26" as="geometry" />
        </mxCell>
        <mxCell id="RCvce2JsTzCcPLTj6pLt-39" value="" style="line;strokeWidth=1;fillColor=none;align=left;verticalAlign=middle;spacingTop=-1;spacingLeft=3;spacingRight=3;rotatable=0;labelPosition=right;points=[];portConstraint=eastwest;strokeColor=inherit;" vertex="1" parent="RCvce2JsTzCcPLTj6pLt-37">
          <mxGeometry y="52" width="150" height="14" as="geometry" />
        </mxCell>
        <mxCell id="RCvce2JsTzCcPLTj6pLt-45" value="+ShuffleDeck:void" style="text;html=1;align=left;verticalAlign=middle;resizable=0;points=[];autosize=1;strokeColor=none;fillColor=none;" vertex="1" parent="RCvce2JsTzCcPLTj6pLt-37">
          <mxGeometry y="66" width="150" height="30" as="geometry" />
        </mxCell>
        <mxCell id="RCvce2JsTzCcPLTj6pLt-41" value="Card" style="swimlane;fontStyle=1;align=center;verticalAlign=top;childLayout=stackLayout;horizontal=1;startSize=26;horizontalStack=0;resizeParent=1;resizeParentMax=0;resizeLast=0;collapsible=1;marginBottom=0;whiteSpace=wrap;html=1;strokeWidth=2;" vertex="1" parent="1">
          <mxGeometry x="685" y="750" width="160" height="83" as="geometry" />
        </mxCell>
        <mxCell id="RCvce2JsTzCcPLTj6pLt-42" value="- CardName: std::string&lt;br&gt;-CardSuit:std::string" style="text;strokeColor=none;fillColor=none;align=left;verticalAlign=top;spacingLeft=4;spacingRight=4;overflow=hidden;rotatable=0;points=[[0,0.5],[1,0.5]];portConstraint=eastwest;whiteSpace=wrap;html=1;" vertex="1" parent="RCvce2JsTzCcPLTj6pLt-41">
          <mxGeometry y="26" width="160" height="49" as="geometry" />
        </mxCell>
        <mxCell id="RCvce2JsTzCcPLTj6pLt-43" value="" style="line;strokeWidth=1;fillColor=none;align=left;verticalAlign=middle;spacingTop=-1;spacingLeft=3;spacingRight=3;rotatable=0;labelPosition=right;points=[];portConstraint=eastwest;strokeColor=inherit;" vertex="1" parent="RCvce2JsTzCcPLTj6pLt-41">
          <mxGeometry y="75" width="160" height="8" as="geometry" />
        </mxCell>
        <mxCell id="RCvce2JsTzCcPLTj6pLt-50" value="" style="endArrow=diamondThin;endFill=0;endSize=24;html=1;rounded=0;strokeWidth=2;entryX=0.996;entryY=0.864;entryDx=0;entryDy=0;entryPerimeter=0;exitX=0.011;exitY=0.942;exitDx=0;exitDy=0;exitPerimeter=0;" edge="1" parent="1" source="RCvce2JsTzCcPLTj6pLt-38" target="RCvce2JsTzCcPLTj6pLt-42">
          <mxGeometry width="160" relative="1" as="geometry">
            <mxPoint x="915" y="840" as="sourcePoint" />
            <mxPoint x="1005" y="825" as="targetPoint" />
          </mxGeometry>
        </mxCell>
        <mxCell id="RCvce2JsTzCcPLTj6pLt-51" value="" style="endArrow=diamondThin;endFill=1;endSize=24;html=1;rounded=0;entryX=1.023;entryY=0.383;entryDx=0;entryDy=0;entryPerimeter=0;strokeWidth=2;exitX=-0.021;exitY=0.823;exitDx=0;exitDy=0;exitPerimeter=0;" edge="1" parent="1" source="RCvce2JsTzCcPLTj6pLt-42" target="RCvce2JsTzCcPLTj6pLt-31">
          <mxGeometry width="160" relative="1" as="geometry">
            <mxPoint x="705" y="827" as="sourcePoint" />
            <mxPoint x="480" y="885" as="targetPoint" />
          </mxGeometry>
        </mxCell>
        <mxCell id="RCvce2JsTzCcPLTj6pLt-52" value="" style="endArrow=diamondThin;endFill=0;endSize=24;html=1;rounded=0;entryX=0.472;entryY=-0.019;entryDx=0;entryDy=0;entryPerimeter=0;exitX=0.57;exitY=1.024;exitDx=0;exitDy=0;exitPerimeter=0;" edge="1" parent="1" source="RCvce2JsTzCcPLTj6pLt-31" target="RCvce2JsTzCcPLTj6pLt-17">
          <mxGeometry width="160" relative="1" as="geometry">
            <mxPoint x="510" y="885" as="sourcePoint" />
            <mxPoint x="670" y="885" as="targetPoint" />
          </mxGeometry>
        </mxCell>
        <mxCell id="RCvce2JsTzCcPLTj6pLt-53" value="" style="endArrow=diamondThin;endFill=0;endSize=24;html=1;rounded=0;entryX=0.5;entryY=0;entryDx=0;entryDy=0;exitX=0.57;exitY=1.008;exitDx=0;exitDy=0;exitPerimeter=0;" edge="1" parent="1" source="RCvce2JsTzCcPLTj6pLt-31" target="RCvce2JsTzCcPLTj6pLt-13">
          <mxGeometry width="160" relative="1" as="geometry">
            <mxPoint x="480" y="900" as="sourcePoint" />
            <mxPoint x="600" y="986" as="targetPoint" />
          </mxGeometry>
        </mxCell>
      </root>
    </mxGraphModel>
  </diagram>
  <diagram id="jvFmM2VPI1mSa0YPiJ2G" name="Страница — 2">
    <mxGraphModel dx="1434" dy="907" grid="1" gridSize="10" guides="1" tooltips="1" connect="1" arrows="1" fold="1" page="0" pageScale="1" pageWidth="1169" pageHeight="827" background="#63A8C2" math="0" shadow="0">
      <root>
        <mxCell id="0" />
        <mxCell id="1" parent="0" />
      </root>
    </mxGraphModel>
  </diagram>
</mxfile>
